<?xml version="1.0" encoding="UTF-8"?>
<!DOCTYPE svg PUBLIC "-//W3C//DTD SVG 1.1//EN" "http://www.w3.org/Graphics/SVG/1.1/DTD/svg11.dtd">
<!-- Creator: CorelDRAW -->
<svg xmlns="http://www.w3.org/2000/svg" xml:space="preserve" width="100mm" height="100mm" shape-rendering="geometricPrecision" text-rendering="geometricPrecision" image-rendering="optimizeQuality" fill-rule="evenodd" clip-rule="evenodd"
viewBox="0 0 100 100"
 xmlns:xlink="http://www.w3.org/1999/xlink">
 <g id="Ebene_x0020_1">
  <metadata id="CorelCorpID_0Corel-Layer"/>
  <path fill="white" d="M83.526 24.3292l5.0006 5.0005 9.8445 19.7439 -19.7439 -9.8445 -4.825 -4.8248 -19.3012 19.9984 31.5273 30.4582c0.7699,0.7437 0.818,1.9607 0.1092,2.7628 -1.3648,1.5446 -2.826,3.0058 -4.3705,4.3705 -0.8021,0.7088 -2.0191,0.6608 -2.7628,-0.1091l-30.3544 -31.4199 -30.3246 31.4186c-0.7436,0.7704 -1.961,0.8188 -2.7634,0.1098 -1.5441,-1.3645 -3.005,-2.8251 -4.3693,-4.3692 -0.709,-0.8023 -0.6607,-2.0199 0.1098,-2.7635l31.5228 -30.425 -20.8788 -21.6126c-3.7644,4.233 -6.9481,8.9965 -9.4369,14.166l-10.8805 -9.4668c6.8998,-12.6804 17.338,-23.1096 30.0058,-30.0183l9.4619 10.879c-5.1582,2.4839 -9.9086,5.6625 -14.1303,9.4194l21.7166 20.9795 20.0988 -19.3983 -11.3677 -11.3679 9.8994 -9.8994 11.5433 11.5435 1.4376 -1.3877 4.6204 4.618 -1.3887 1.4389z"/>
 </g>
</svg>
